<svg width="114" height="24" viewBox="0 0 114 24" fill="none" xmlns="http://www.w3.org/2000/svg">
<path d="M3 3.512C2.63733 3.49067 2.24267 3.45867 1.816 3.416C1.41067 3.37333 1.048 3.33067 0.728 3.288C0.685333 2.94667 0.653333 2.552 0.632 2.104C0.610667 1.63467 0.632 1.21867 0.696 0.855999C1.31467 0.791999 2.008 0.727999 2.776 0.664C3.56533 0.599999 4.35467 0.546666 5.144 0.504C5.95467 0.439999 6.744 0.397333 7.512 0.375999C8.28 0.354666 8.952 0.344 9.528 0.344C11.256 0.344 12.8347 0.578666 14.264 1.048C15.7147 1.496 16.9627 2.18933 18.008 3.128C19.0533 4.04533 19.864 5.208 20.44 6.616C21.0373 8.024 21.336 9.67733 21.336 11.576C21.336 13.5813 21.0267 15.3093 20.408 16.76C19.8107 18.2107 19 19.416 17.976 20.376C16.9733 21.3147 15.832 22.0187 14.552 22.488C13.272 22.936 11.96 23.16 10.616 23.16C9.86933 23.16 9.048 23.1493 8.152 23.128C7.256 23.128 6.33867 23.1173 5.4 23.096C4.48267 23.096 3.56533 23.0853 2.648 23.064C1.752 23.0427 0.92 23.0107 0.152 22.968C0.194667 22.6267 0.258667 22.232 0.344 21.784C0.450667 21.336 0.557333 20.9733 0.664 20.696C0.92 20.5893 1.29333 20.504 1.784 20.44C2.27467 20.3547 2.68 20.2907 3 20.248V3.512ZM6.872 20.504C7.29867 20.5467 7.768 20.5787 8.28 20.6C8.792 20.6 9.26133 20.6 9.688 20.6C10.8187 20.6 11.8533 20.44 12.792 20.12C13.7307 19.7787 14.5307 19.256 15.192 18.552C15.8747 17.848 16.3973 16.9627 16.76 15.896C17.1227 14.808 17.304 13.5173 17.304 12.024C17.304 10.4453 17.1013 9.08 16.696 7.928C16.312 6.776 15.7573 5.82667 15.032 5.08C14.3067 4.33333 13.4427 3.77867 12.44 3.416C11.4587 3.05333 10.36 2.872 9.144 2.872C8.84533 2.872 8.46133 2.88267 7.992 2.904C7.544 2.904 7.17067 2.92533 6.872 2.968V20.504ZM27.9125 3.288C27.5712 3.288 27.1765 3.27733 26.7285 3.256C26.3018 3.21333 25.9392 3.16 25.6405 3.096C25.5978 2.81867 25.5658 2.424 25.5445 1.912C25.5232 1.37867 25.5338 0.941332 25.5765 0.599998C26.2165 0.535999 26.8992 0.482666 27.6245 0.439999C28.3498 0.397333 29.0858 0.365333 29.8325 0.344C30.5792 0.301332 31.3152 0.269332 32.0405 0.247999C32.7872 0.226666 33.5018 0.216 34.1845 0.216C35.4218 0.216 36.5738 0.343999 37.6405 0.599998C38.7072 0.855999 39.6352 1.25067 40.4245 1.784C41.2138 2.296 41.8325 2.968 42.2805 3.8C42.7498 4.61067 42.9845 5.57067 42.9845 6.68C42.9845 7.46933 42.8565 8.19467 42.6005 8.856C42.3658 9.51733 42.0352 10.104 41.6085 10.616C41.1818 11.128 40.6805 11.5653 40.1045 11.928C39.5285 12.2907 38.9098 12.5787 38.2485 12.792C38.7178 13.688 39.2085 14.5733 39.7205 15.448C40.2325 16.3227 40.7125 17.112 41.1605 17.816C41.6298 18.4987 42.0352 19.0747 42.3765 19.544C42.7392 19.992 43.0058 20.2587 43.1765 20.344L45.0645 20.184C45.0645 20.6107 45.0112 21.0907 44.9045 21.624C44.8192 22.136 44.7018 22.552 44.5525 22.872C44.2965 22.936 43.9978 23 43.6565 23.064C43.3365 23.1493 42.9952 23.2133 42.6325 23.256C42.2912 23.32 41.9392 23.3627 41.5765 23.384C41.2352 23.4267 40.9365 23.4587 40.6805 23.48C40.4245 23.3093 40.0725 22.9253 39.6245 22.328C39.1978 21.7093 38.7072 20.952 38.1525 20.056C37.6192 19.1387 37.0432 18.104 36.4245 16.952C35.8272 15.8 35.2298 14.6053 34.6325 13.368C34.1418 13.368 33.6512 13.3573 33.1605 13.336C32.6698 13.2933 32.2112 13.24 31.7845 13.176V20.312C32.1898 20.3547 32.6272 20.3973 33.0965 20.44C33.5658 20.4827 33.9712 20.5573 34.3125 20.664C34.3552 20.792 34.3872 20.9627 34.4085 21.176C34.4298 21.3893 34.4405 21.6133 34.4405 21.848C34.4618 22.0613 34.4618 22.2747 34.4405 22.488C34.4405 22.7013 34.4298 22.872 34.4085 23H25.0325C25.0752 22.68 25.1392 22.296 25.2245 21.848C25.3312 21.3787 25.4378 21.0053 25.5445 20.728C25.8218 20.6427 26.2058 20.5573 26.6965 20.472C27.1872 20.3867 27.5925 20.3227 27.9125 20.28V3.288ZM31.7845 10.872C32.2325 10.936 32.7232 10.9787 33.2565 11C33.7898 11.0213 34.3018 11.032 34.7925 11.032C35.3898 11.032 35.9445 10.9573 36.4565 10.808C36.9898 10.6373 37.4485 10.3813 37.8325 10.04C38.2165 9.69867 38.5152 9.272 38.7285 8.76C38.9632 8.22667 39.0805 7.59733 39.0805 6.872C39.0805 6.18933 38.9418 5.592 38.6645 5.08C38.3872 4.54667 38.0032 4.10933 37.5125 3.768C37.0432 3.42667 36.4778 3.17067 35.8165 3C35.1552 2.82933 34.4405 2.744 33.6725 2.744C33.3738 2.744 33.0538 2.75467 32.7125 2.776C32.3712 2.776 32.0618 2.79733 31.7845 2.84V10.872ZM62.653 23C62.6957 22.68 62.7703 22.296 62.877 21.848C62.9837 21.4 63.101 21.0267 63.229 20.728C63.5277 20.6213 63.8797 20.536 64.285 20.472C64.7117 20.3867 65.0957 20.3227 65.437 20.28C65.181 19.9387 64.957 19.576 64.765 19.192C64.573 18.7867 64.3917 18.3813 64.221 17.976L63.517 16.12H55.133L54.397 18.136C54.269 18.4987 54.109 18.8933 53.917 19.32C53.7463 19.7253 53.5543 20.088 53.341 20.408C53.7037 20.4293 54.109 20.472 54.557 20.536C55.0263 20.5787 55.4423 20.6427 55.805 20.728C55.9117 21.0053 55.997 21.3787 56.061 21.848C56.1463 22.3173 56.189 22.7013 56.189 23H47.901C47.9437 22.616 48.0183 22.2213 48.125 21.816C48.253 21.4107 48.3917 21.048 48.541 20.728C48.7543 20.6427 49.0103 20.568 49.309 20.504C49.629 20.44 49.9063 20.3867 50.141 20.344L58.461 0.151999H61.277L69.245 20.248C69.501 20.2907 69.8103 20.344 70.173 20.408C70.557 20.472 70.877 20.5467 71.133 20.632C71.2397 20.9733 71.325 21.368 71.389 21.816C71.4743 22.2427 71.5277 22.6373 71.549 23H62.653ZM59.229 4.248C59.1863 4.504 59.1223 4.80267 59.037 5.144C58.973 5.464 58.8877 5.80533 58.781 6.168C58.6743 6.50933 58.5677 6.85067 58.461 7.192C58.3543 7.512 58.2583 7.78933 58.173 8.024L56.029 13.752H62.621L60.445 7.96C60.3597 7.74667 60.2637 7.48 60.157 7.16C60.0717 6.84 59.9863 6.50933 59.901 6.168C59.8157 5.82667 59.7303 5.48533 59.645 5.144C59.581 4.80267 59.5383 4.504 59.517 4.248H59.229ZM81.797 20.312C82.309 20.3547 82.8637 20.408 83.461 20.472C84.0583 20.5147 84.5703 20.5787 84.997 20.664C85.0397 20.792 85.0717 20.9627 85.093 21.176C85.1143 21.3893 85.1357 21.6133 85.157 21.848C85.1783 22.0613 85.1783 22.2747 85.157 22.488C85.157 22.7013 85.1463 22.872 85.125 23H75.045C75.0877 22.68 75.1517 22.296 75.237 21.848C75.3437 21.3787 75.4503 21.0053 75.557 20.728C75.8343 20.6427 76.2183 20.5573 76.709 20.472C77.1997 20.3867 77.605 20.3227 77.925 20.28V3.224C77.5623 3.18133 77.157 3.13867 76.709 3.096C76.2823 3.032 75.9303 2.97867 75.653 2.936C75.6103 2.59467 75.5783 2.21067 75.557 1.784C75.557 1.336 75.5783 0.930666 75.621 0.567999H91.237V5.976C90.8103 5.976 90.341 5.944 89.829 5.88C89.317 5.816 88.8797 5.72 88.517 5.592C88.4743 5.44267 88.4317 5.26133 88.389 5.048C88.3463 4.81333 88.3037 4.57867 88.261 4.344C88.2183 4.10933 88.1757 3.87467 88.133 3.64C88.1117 3.40533 88.0903 3.20267 88.069 3.032H81.797V10.84H86.821C86.8423 10.6267 86.885 10.36 86.949 10.04C87.013 9.69867 87.077 9.41067 87.141 9.176C87.461 9.06933 87.8663 8.984 88.357 8.92C88.8477 8.856 89.3063 8.824 89.733 8.824V15.224C89.349 15.2667 88.901 15.2667 88.389 15.224C87.8983 15.1813 87.4717 15.1067 87.109 15C87.045 14.7653 86.981 14.4773 86.917 14.136C86.8743 13.7733 86.8423 13.4747 86.821 13.24H81.797V20.312ZM106.373 20.312C106.863 20.3547 107.397 20.408 107.973 20.472C108.57 20.5147 109.082 20.5787 109.509 20.664C109.551 20.792 109.583 20.9627 109.605 21.176C109.626 21.3893 109.647 21.6133 109.669 21.848C109.69 22.0613 109.69 22.2747 109.669 22.488C109.669 22.7013 109.658 22.872 109.637 23H99.2365C99.2578 22.68 99.3325 22.296 99.4605 21.848C99.5885 21.4 99.7058 21.0373 99.8125 20.76C100.133 20.6533 100.559 20.5573 101.093 20.472C101.647 20.3867 102.117 20.3227 102.501 20.28V3.032H98.0845C98.0632 3.20267 98.0312 3.416 97.9885 3.672C97.9672 3.90667 97.9352 4.152 97.8925 4.408C97.8498 4.64267 97.8072 4.87733 97.7645 5.112C97.7218 5.34667 97.6898 5.53867 97.6685 5.688C97.2632 5.79467 96.8045 5.86933 96.2925 5.912C95.7805 5.95467 95.3112 5.976 94.8845 5.976V0.567999H113.989V6.104C113.541 6.104 113.061 6.08267 112.549 6.04C112.037 5.976 111.578 5.89067 111.173 5.784C111.087 5.42133 111.002 4.97333 110.917 4.44C110.853 3.88533 110.799 3.416 110.757 3.032H106.373V20.312Z" fill="#333333"/>
</svg>
