<svg width="83" height="25" viewBox="0 0 83 25" fill="none" xmlns="http://www.w3.org/2000/svg">
<path d="M3.48451 4.512C3.12184 4.49067 2.72718 4.45867 2.30051 4.416C1.89518 4.37333 1.53251 4.33067 1.21251 4.288C1.16984 3.94667 1.13784 3.552 1.11651 3.104C1.09518 2.63467 1.11651 2.21867 1.18051 1.856C1.79918 1.792 2.49251 1.728 3.26051 1.664C4.04984 1.6 4.83918 1.54667 5.62851 1.504C6.43918 1.44 7.22851 1.39733 7.99651 1.376C8.76451 1.35467 9.43651 1.344 10.0125 1.344C11.7405 1.344 13.3192 1.57867 14.7485 2.048C16.1992 2.496 17.4472 3.18933 18.4925 4.128C19.5378 5.04533 20.3485 6.208 20.9245 7.616C21.5218 9.024 21.8205 10.6773 21.8205 12.576C21.8205 14.5813 21.5112 16.3093 20.8925 17.76C20.2952 19.2107 19.4845 20.416 18.4605 21.376C17.4578 22.3147 16.3165 23.0187 15.0365 23.488C13.7565 23.936 12.4445 24.16 11.1005 24.16C10.3538 24.16 9.53251 24.1493 8.63651 24.128C7.74051 24.128 6.82318 24.1173 5.88451 24.096C4.96718 24.096 4.04984 24.0853 3.13251 24.064C2.23651 24.0427 1.40451 24.0107 0.636509 23.968C0.679175 23.6267 0.743175 23.232 0.828509 22.784C0.935175 22.336 1.04184 21.9733 1.14851 21.696C1.40451 21.5893 1.77784 21.504 2.26851 21.44C2.75918 21.3547 3.16451 21.2907 3.48451 21.248V4.512ZM7.35651 21.504C7.78318 21.5467 8.25251 21.5787 8.76451 21.6C9.27651 21.6 9.74584 21.6 10.1725 21.6C11.3032 21.6 12.3378 21.44 13.2765 21.12C14.2152 20.7787 15.0152 20.256 15.6765 19.552C16.3592 18.848 16.8818 17.9627 17.2445 16.896C17.6072 15.808 17.7885 14.5173 17.7885 13.024C17.7885 11.4453 17.5858 10.08 17.1805 8.928C16.7965 7.776 16.2418 6.82667 15.5165 6.08C14.7912 5.33333 13.9272 4.77867 12.9245 4.416C11.9432 4.05333 10.8445 3.872 9.62851 3.872C9.32984 3.872 8.94584 3.88267 8.47651 3.904C8.02851 3.904 7.65518 3.92533 7.35651 3.968V21.504ZM31.373 11.584C31.4583 11.1147 31.6183 10.6667 31.853 10.24C32.109 9.81333 32.4183 9.44 32.781 9.12C33.1437 8.8 33.549 8.544 33.997 8.352C34.4663 8.16 34.9677 8.064 35.501 8.064C35.7357 8.064 36.0023 8.08533 36.301 8.128C36.5997 8.14933 36.845 8.21333 37.037 8.32C37.2077 8.55467 37.3357 8.88533 37.421 9.312C37.5063 9.73867 37.549 10.1973 37.549 10.688C37.549 10.9013 37.5383 11.104 37.517 11.296C37.4957 11.488 37.4637 11.6693 37.421 11.84C37.101 11.6693 36.7277 11.5413 36.301 11.456C35.8743 11.3493 35.4797 11.296 35.117 11.296C34.3917 11.296 33.709 11.4987 33.069 11.904C32.429 12.288 31.9063 12.8853 31.501 13.696V21.408C31.9703 21.4507 32.5143 21.536 33.133 21.664C33.773 21.7707 34.2743 21.8987 34.637 22.048C34.7223 22.2827 34.7757 22.6027 34.797 23.008C34.8183 23.392 34.8077 23.7227 34.765 24H25.389C25.4317 23.7013 25.4957 23.3813 25.581 23.04C25.6663 22.6773 25.7623 22.3787 25.869 22.144C26.1037 21.9947 26.413 21.856 26.797 21.728C27.181 21.6 27.5223 21.4827 27.821 21.376V11.104H25.549C25.549 10.7413 25.6023 10.3467 25.709 9.92C25.837 9.49333 25.997 9.13067 26.189 8.832C26.5517 8.66133 26.989 8.53333 27.501 8.448C28.0343 8.34133 28.5783 8.288 29.133 8.288C29.453 8.288 29.773 8.30933 30.093 8.352C30.4343 8.39467 30.7223 8.45867 30.957 8.544V11.584H31.373ZM49.4573 22.176C49.0306 22.9227 48.4333 23.5093 47.6653 23.936C46.8973 24.3413 45.9693 24.544 44.8813 24.544C44.3053 24.544 43.7399 24.448 43.1853 24.256C42.6306 24.0853 42.1399 23.8187 41.7133 23.456C41.2866 23.072 40.9453 22.6027 40.6893 22.048C40.4333 21.472 40.3053 20.8 40.3053 20.032C40.3053 19.1787 40.4653 18.432 40.7853 17.792C41.1266 17.152 41.5746 16.6187 42.1293 16.192C42.7053 15.744 43.3666 15.4133 44.1133 15.2C44.8813 14.9867 45.6919 14.88 46.5453 14.88C47.0359 14.88 47.5266 14.9333 48.0173 15.04C48.5079 15.1253 48.9453 15.2533 49.3293 15.424V13.952C49.3293 11.9467 48.3586 10.944 46.4173 10.944C46.0546 10.944 45.6493 10.9867 45.2013 11.072C44.7533 11.1573 44.2946 11.2747 43.8253 11.424C43.3773 11.552 42.9399 11.7013 42.5133 11.872C42.1079 12.0427 41.7666 12.2133 41.4893 12.384C41.4466 12.256 41.4146 12.0853 41.3933 11.872C41.3719 11.6587 41.3613 11.4667 41.3613 11.296C41.3613 10.8693 41.4039 10.4533 41.4893 10.048C41.5746 9.62133 41.6919 9.29067 41.8413 9.056C42.1186 8.928 42.4706 8.8 42.8973 8.672C43.3453 8.544 43.8146 8.43733 44.3053 8.352C44.8173 8.26667 45.3293 8.20267 45.8413 8.16C46.3746 8.096 46.8653 8.064 47.3133 8.064C49.1906 8.064 50.5879 8.512 51.5053 9.408C52.4439 10.2827 52.9133 11.7867 52.9133 13.92V19.712C52.9133 20.1387 52.9453 20.5333 53.0093 20.896C53.0946 21.2587 53.2013 21.536 53.3293 21.728C53.6066 21.728 53.9586 21.696 54.3853 21.632C54.8333 21.568 55.2066 21.4933 55.5053 21.408C55.5266 21.4933 55.5373 21.5787 55.5373 21.664V21.824C55.5373 22.1227 55.4946 22.432 55.4093 22.752C55.3239 23.072 55.2173 23.36 55.0893 23.616C54.8973 23.7227 54.6413 23.84 54.3213 23.968C54.0226 24.0747 53.6919 24.1707 53.3293 24.256C52.9879 24.3413 52.6146 24.4053 52.2093 24.448C51.8253 24.512 51.4626 24.544 51.1213 24.544C50.7799 24.352 50.4813 24.0427 50.2253 23.616C49.9693 23.168 49.7879 22.688 49.6813 22.176H49.4573ZM49.3933 17.216C49.0946 17.1307 48.7533 17.0667 48.3693 17.024C47.9853 16.9813 47.6546 16.96 47.3773 16.96C46.2893 16.96 45.4466 17.1947 44.8493 17.664C44.2733 18.1333 43.9853 18.752 43.9853 19.52C43.9853 20.3307 44.2306 20.928 44.7213 21.312C45.2119 21.6747 45.7879 21.856 46.4493 21.856C47.0679 21.856 47.6333 21.728 48.1453 21.472C48.6786 21.216 49.0946 20.8853 49.3933 20.48V17.216ZM68.8313 8.608C68.8953 8.90667 68.9486 9.312 68.9913 9.824C69.0339 10.3147 69.0339 10.7307 68.9913 11.072H64.6073V21.408C64.8419 21.4293 65.0979 21.4613 65.3753 21.504C65.6739 21.5467 65.9619 21.6 66.2393 21.664C66.5379 21.728 66.8153 21.792 67.0713 21.856C67.3273 21.92 67.5513 21.984 67.7433 22.048C67.8073 22.2827 67.8499 22.6027 67.8713 23.008C67.9139 23.392 67.9139 23.7227 67.8713 24H58.4953C58.5379 23.7013 58.6019 23.3813 58.6873 23.04C58.7726 22.6773 58.8686 22.3787 58.9753 22.144C59.2099 21.9947 59.5193 21.856 59.9033 21.728C60.2873 21.5787 60.6286 21.4613 60.9273 21.376V11.072H58.4313C58.4526 10.7733 58.5059 10.4 58.5913 9.952C58.6979 9.48267 58.8153 9.09867 58.9433 8.8C59.1993 8.672 59.5193 8.55467 59.9033 8.448C60.2873 8.32 60.6286 8.224 60.9273 8.16V6.752C60.9273 5.64267 61.0873 4.69333 61.4073 3.904C61.7273 3.09333 62.1753 2.432 62.7513 1.92C63.3273 1.408 64.0099 1.03467 64.7993 0.799999C65.5886 0.543999 66.4526 0.415998 67.3913 0.415998C68.0099 0.415998 68.7033 0.469332 69.4713 0.575998C70.2393 0.682665 70.9539 0.853332 71.6153 1.088C71.6793 1.472 71.7113 1.89867 71.7113 2.368C71.7113 2.92267 71.6579 3.488 71.5513 4.064C71.4659 4.61867 71.3593 5.088 71.2313 5.472C71.0393 5.472 70.8153 5.45067 70.5593 5.408C70.3246 5.36533 70.0793 5.32267 69.8233 5.28C69.5886 5.216 69.3539 5.152 69.1193 5.088C68.9059 5.00267 68.7246 4.91733 68.5753 4.832V2.784C68.4046 2.69866 68.2019 2.64533 67.9673 2.624C67.7326 2.58133 67.5299 2.56 67.3593 2.56C66.5486 2.56 65.8873 2.848 65.3753 3.424C64.8633 4 64.6073 4.98133 64.6073 6.368V8.608H68.8313ZM74.086 4.608C74.406 4.43733 74.8647 4.288 75.462 4.16C76.0593 4.032 76.5927 3.968 77.062 3.968V8.608H81.606C81.6273 8.736 81.6487 8.90667 81.67 9.12C81.6913 9.312 81.7127 9.52533 81.734 9.76C81.7553 9.99467 81.766 10.2293 81.766 10.464C81.766 10.6987 81.7553 10.9013 81.734 11.072H77.062V19.072C77.062 20.032 77.2113 20.7147 77.51 21.12C77.8087 21.5253 78.342 21.728 79.11 21.728C79.5367 21.728 80.0167 21.6853 80.55 21.6C81.1047 21.5147 81.6167 21.4187 82.086 21.312C82.1073 21.3973 82.118 21.4933 82.118 21.6V21.792C82.118 22.0907 82.0753 22.4 81.99 22.72C81.9047 23.04 81.7767 23.3387 81.606 23.616C80.9873 23.9147 80.294 24.1387 79.526 24.288C78.758 24.4587 78.0647 24.544 77.446 24.544C76.0593 24.544 75.0247 24.1707 74.342 23.424C73.6593 22.656 73.318 21.3867 73.318 19.616C73.318 19.1253 73.318 18.5387 73.318 17.856C73.3393 17.1733 73.35 16.4587 73.35 15.712C73.3713 14.944 73.3927 14.1653 73.414 13.376C73.4567 12.5653 73.4993 11.7973 73.542 11.072H71.238C71.238 10.7733 71.2807 10.3893 71.366 9.92C71.4727 9.45067 71.59 9.07733 71.718 8.8C71.974 8.672 72.262 8.55467 72.582 8.448C72.9233 8.32 73.2433 8.224 73.542 8.16L74.086 4.608Z" fill="#333333"/>
</svg>
